<svg width="107" height="1168" viewBox="0 0 107 1168" fill="none" xmlns="http://www.w3.org/2000/svg">
<rect x="0.5" y="0.5" width="106" height="1167" rx="4.5" stroke="#9747FF" stroke-dasharray="10 5"/>
<path d="M49.1534 120.04C49.0436 119.695 48.8958 119.386 48.7102 119.114C48.5284 118.837 48.3106 118.602 48.0568 118.409C47.803 118.212 47.5133 118.062 47.1875 117.96C46.8655 117.858 46.5114 117.807 46.125 117.807C45.4697 117.807 44.8788 117.975 44.3523 118.312C43.8258 118.65 43.4091 119.144 43.1023 119.795C42.7992 120.443 42.6477 121.237 42.6477 122.176C42.6477 123.119 42.8011 123.917 43.108 124.568C43.4148 125.22 43.8352 125.714 44.3693 126.051C44.9034 126.388 45.5114 126.557 46.1932 126.557C46.8258 126.557 47.3769 126.428 47.8466 126.17C48.3201 125.913 48.6856 125.549 48.9432 125.08C49.2045 124.606 49.3352 124.049 49.3352 123.409L49.7898 123.494H46.4602V122.045H51.0341V123.369C51.0341 124.347 50.8258 125.195 50.4091 125.915C49.9962 126.631 49.4242 127.184 48.6932 127.574C47.9659 127.964 47.1326 128.159 46.1932 128.159C45.1402 128.159 44.2159 127.917 43.4205 127.432C42.6288 126.947 42.0114 126.259 41.5682 125.369C41.125 124.475 40.9034 123.415 40.9034 122.188C40.9034 121.259 41.0322 120.426 41.2898 119.688C41.5473 118.949 41.9091 118.322 42.375 117.807C42.8447 117.288 43.3958 116.892 44.0284 116.619C44.6648 116.343 45.3598 116.205 46.1136 116.205C46.7424 116.205 47.3277 116.297 47.8693 116.483C48.4148 116.669 48.8996 116.932 49.3239 117.273C49.7519 117.614 50.1061 118.019 50.3864 118.489C50.6667 118.955 50.8561 119.472 50.9545 120.04H49.1534ZM53.6733 128V119.273H55.3722V128H53.6733ZM54.5312 117.926C54.2358 117.926 53.982 117.828 53.7699 117.631C53.5616 117.43 53.4574 117.191 53.4574 116.915C53.4574 116.634 53.5616 116.396 53.7699 116.199C53.982 115.998 54.2358 115.898 54.5312 115.898C54.8267 115.898 55.0786 115.998 55.2869 116.199C55.4991 116.396 55.6051 116.634 55.6051 116.915C55.6051 117.191 55.4991 117.43 55.2869 117.631C55.0786 117.828 54.8267 117.926 54.5312 117.926ZM61.7315 119.273V120.636H56.9645V119.273H61.7315ZM58.2429 117.182H59.9418V125.438C59.9418 125.767 59.991 126.015 60.0895 126.182C60.188 126.345 60.3149 126.456 60.4702 126.517C60.6293 126.574 60.8016 126.602 60.9872 126.602C61.1236 126.602 61.2429 126.593 61.3452 126.574C61.4474 126.555 61.527 126.54 61.5838 126.528L61.8906 127.932C61.7921 127.97 61.652 128.008 61.4702 128.045C61.2884 128.087 61.0611 128.11 60.7884 128.114C60.3414 128.121 59.9247 128.042 59.5384 127.875C59.152 127.708 58.8395 127.451 58.6009 127.102C58.3622 126.754 58.2429 126.316 58.2429 125.79V117.182Z" fill="black"/>
<g clip-path="url(#clip0_3554_830)">
<path d="M85.7364 55.6867L56.4912 26.2703C55.6816 25.4569 54.584 25 53.4396 25C52.2951 25 51.1975 25.4569 50.3879 26.2703L44.3071 32.3807L52.0121 40.1288C56.059 38.7542 59.8905 42.6508 58.5012 46.6979L65.928 54.1663C71.0472 52.3916 75.0777 58.8284 71.2327 62.6919C67.271 66.6757 60.7325 62.2603 62.8577 57.0763L55.9259 50.1147V68.4398C59.7096 70.3257 59.2549 74.7337 57.2838 76.7113C56.3208 77.6792 55.015 78.2229 53.6534 78.2229C52.2919 78.2229 50.986 77.6792 50.023 76.7113C47.3953 74.0644 48.3674 69.6565 51.7055 68.2894V49.7914C48.5948 48.5116 48.0265 45.1684 48.9178 43.0238L41.322 35.3764L21.2638 55.5498C20.4546 56.3638 20 57.4676 20 58.6186C20 59.7695 20.4546 60.8734 21.2638 61.6873L50.518 91.1037C51.3274 91.917 52.4247 92.3738 53.5689 92.3738C54.7131 92.3738 55.8105 91.917 56.6198 91.1037L85.7364 61.8241C86.5456 61.0102 87.0003 59.9064 87.0003 58.7554C87.0003 57.6045 86.5456 56.5006 85.7364 55.6867Z" fill="black"/>
</g>
<path d="M26.4737 255V243.364H28.2294V248.42H34.0305V243.364H35.7919V255H34.0305V249.926H28.2294V255H26.4737ZM37.7749 244.875V243.364H46.7805V244.875H43.1499V255H41.3999V244.875H37.7749ZM48.7706 243.364H50.9013L54.6058 252.409H54.7422L58.4467 243.364H60.5774V255H58.907V246.58H58.799L55.3672 254.983H53.9808L50.549 246.574H50.4411V255H48.7706V243.364ZM63.13 255V243.364H64.8857V253.489H70.1584V255H63.13ZM75.843 255.159C75.1309 255.159 74.4908 255.023 73.9226 254.75C73.3582 254.473 72.9074 254.095 72.5703 253.614C72.2332 253.133 72.0533 252.583 72.0305 251.966H73.7351C73.7768 252.466 73.9983 252.877 74.3999 253.199C74.8014 253.521 75.2824 253.682 75.843 253.682C76.29 253.682 76.6858 253.58 77.0305 253.375C77.379 253.167 77.6518 252.881 77.8487 252.517C78.0495 252.153 78.1499 251.739 78.1499 251.273C78.1499 250.799 78.0476 250.377 77.843 250.006C77.6385 249.634 77.3563 249.343 76.9964 249.131C76.6404 248.919 76.2313 248.811 75.7692 248.807C75.4169 248.807 75.0627 248.867 74.7067 248.989C74.3506 249.11 74.0627 249.269 73.843 249.466L72.2351 249.227L72.8885 243.364H79.2862V244.869H74.3487L73.9794 248.125H74.0476C74.2749 247.905 74.576 247.722 74.951 247.574C75.3298 247.426 75.7351 247.352 76.1669 247.352C76.8752 247.352 77.5059 247.521 78.0589 247.858C78.6158 248.195 79.0533 248.655 79.3714 249.239C79.6934 249.818 79.8525 250.485 79.8487 251.239C79.8525 251.992 79.6821 252.665 79.3374 253.256C78.9964 253.847 78.523 254.312 77.9169 254.653C77.3146 254.991 76.6233 255.159 75.843 255.159Z" fill="black"/>
<path d="M23.9614 152L29.3381 212.3L53.4665 219L77.6577 212.292L83.0428 152H23.9656H23.9614ZM71.3387 171.723H43.0396L43.7138 179.298H70.6687L68.6378 202.003L53.4665 206.207L38.3161 202.003L37.2818 190.387H44.7062L45.2339 196.291L53.4707 198.511L53.4874 198.506L61.7284 196.283L62.5827 186.693H36.951L34.9577 164.328H72.0046L71.3429 171.723H71.3387Z" fill="black"/>
<path d="M43.1072 374.148H41.3345C41.2663 373.769 41.1394 373.436 40.9538 373.148C40.7682 372.86 40.541 372.616 40.272 372.415C40.0031 372.214 39.7019 372.062 39.3686 371.96C39.0391 371.858 38.6887 371.807 38.3175 371.807C37.647 371.807 37.0466 371.975 36.5163 372.312C35.9898 372.65 35.5732 373.144 35.2663 373.795C34.9633 374.447 34.8118 375.242 34.8118 376.182C34.8118 377.129 34.9633 377.928 35.2663 378.58C35.5732 379.231 35.9917 379.723 36.522 380.057C37.0523 380.39 37.6489 380.557 38.3118 380.557C38.6792 380.557 39.0277 380.508 39.3572 380.409C39.6906 380.307 39.9917 380.157 40.2607 379.96C40.5296 379.763 40.7569 379.523 40.9425 379.239C41.1319 378.951 41.2625 378.621 41.3345 378.25L43.1072 378.256C43.0125 378.828 42.8288 379.354 42.5561 379.835C42.2872 380.312 41.9406 380.725 41.5163 381.074C41.0959 381.419 40.6148 381.686 40.0732 381.875C39.5315 382.064 38.9406 382.159 38.3004 382.159C37.2929 382.159 36.3951 381.92 35.6072 381.443C34.8194 380.962 34.1982 380.275 33.7436 379.381C33.2929 378.487 33.0675 377.42 33.0675 376.182C33.0675 374.939 33.2947 373.873 33.7493 372.983C34.2038 372.089 34.825 371.403 35.6129 370.926C36.4008 370.445 37.2966 370.205 38.3004 370.205C38.9179 370.205 39.4936 370.294 40.0277 370.472C40.5656 370.646 41.0485 370.903 41.4766 371.244C41.9046 371.581 42.2588 371.994 42.5391 372.483C42.8194 372.968 43.0088 373.523 43.1072 374.148ZM51.5547 373.42C51.4941 372.883 51.2441 372.466 50.8047 372.17C50.3653 371.871 49.8123 371.722 49.1456 371.722C48.6683 371.722 48.2554 371.797 47.907 371.949C47.5585 372.097 47.2876 372.301 47.0945 372.562C46.9051 372.82 46.8104 373.114 46.8104 373.443C46.8104 373.72 46.8748 373.958 47.0036 374.159C47.1361 374.36 47.3085 374.528 47.5206 374.665C47.7365 374.797 47.9676 374.909 48.2138 375C48.46 375.087 48.6967 375.159 48.924 375.216L50.0604 375.511C50.4316 375.602 50.8123 375.725 51.2024 375.881C51.5926 376.036 51.9543 376.241 52.2876 376.494C52.621 376.748 52.8899 377.062 53.0945 377.438C53.3028 377.812 53.407 378.261 53.407 378.784C53.407 379.443 53.2365 380.028 52.8956 380.54C52.5585 381.051 52.0679 381.455 51.424 381.75C50.7839 382.045 50.0092 382.193 49.1001 382.193C48.2289 382.193 47.4751 382.055 46.8388 381.778C46.2024 381.502 45.7043 381.11 45.3445 380.602C44.9846 380.091 44.7857 379.485 44.7479 378.784H46.5092C46.5433 379.205 46.6797 379.555 46.9183 379.835C47.1607 380.112 47.4695 380.318 47.8445 380.455C48.2232 380.587 48.638 380.653 49.0888 380.653C49.585 380.653 50.0263 380.576 50.4126 380.42C50.8028 380.261 51.1096 380.042 51.3331 379.761C51.5566 379.477 51.6683 379.146 51.6683 378.767C51.6683 378.422 51.5698 378.14 51.3729 377.92C51.1797 377.701 50.9164 377.519 50.5831 377.375C50.2536 377.231 49.8804 377.104 49.4638 376.994L48.0888 376.619C47.157 376.366 46.4183 375.992 45.8729 375.5C45.3312 375.008 45.0604 374.356 45.0604 373.545C45.0604 372.875 45.2422 372.29 45.6058 371.79C45.9695 371.29 46.4619 370.902 47.0831 370.625C47.7043 370.345 48.4051 370.205 49.1854 370.205C49.9732 370.205 50.6683 370.343 51.2706 370.619C51.8767 370.896 52.3539 371.277 52.7024 371.761C53.0509 372.242 53.2327 372.795 53.2479 373.42H51.5547ZM61.8516 373.42C61.791 372.883 61.541 372.466 61.1016 372.17C60.6622 371.871 60.1091 371.722 59.4425 371.722C58.9652 371.722 58.5523 371.797 58.2038 371.949C57.8554 372.097 57.5845 372.301 57.3913 372.562C57.2019 372.82 57.1072 373.114 57.1072 373.443C57.1072 373.72 57.1716 373.958 57.3004 374.159C57.433 374.36 57.6054 374.528 57.8175 374.665C58.0334 374.797 58.2644 374.909 58.5107 375C58.7569 375.087 58.9936 375.159 59.2209 375.216L60.3572 375.511C60.7285 375.602 61.1091 375.725 61.4993 375.881C61.8894 376.036 62.2512 376.241 62.5845 376.494C62.9179 376.748 63.1868 377.062 63.3913 377.438C63.5997 377.812 63.7038 378.261 63.7038 378.784C63.7038 379.443 63.5334 380.028 63.1925 380.54C62.8554 381.051 62.3648 381.455 61.7209 381.75C61.0807 382.045 60.3061 382.193 59.397 382.193C58.5258 382.193 57.772 382.055 57.1357 381.778C56.4993 381.502 56.0012 381.11 55.6413 380.602C55.2815 380.091 55.0826 379.485 55.0447 378.784H56.8061C56.8402 379.205 56.9766 379.555 57.2152 379.835C57.4576 380.112 57.7663 380.318 58.1413 380.455C58.5201 380.587 58.9349 380.653 59.3857 380.653C59.8819 380.653 60.3232 380.576 60.7095 380.42C61.0997 380.261 61.4065 380.042 61.63 379.761C61.8535 379.477 61.9652 379.146 61.9652 378.767C61.9652 378.422 61.8667 378.14 61.6697 377.92C61.4766 377.701 61.2133 377.519 60.88 377.375C60.5504 377.231 60.1773 377.104 59.7607 376.994L58.3857 376.619C57.4538 376.366 56.7152 375.992 56.1697 375.5C55.6281 375.008 55.3572 374.356 55.3572 373.545C55.3572 372.875 55.5391 372.29 55.9027 371.79C56.2663 371.29 56.7588 370.902 57.38 370.625C58.0012 370.345 58.7019 370.205 59.4822 370.205C60.2701 370.205 60.9652 370.343 61.5675 370.619C62.1735 370.896 62.6508 371.277 62.9993 371.761C63.3478 372.242 63.5296 372.795 63.5447 373.42H61.8516ZM69.6939 382.159C68.9136 382.159 68.2166 382.025 67.603 381.756C66.9931 381.487 66.5102 381.114 66.1541 380.636C65.8018 380.155 65.6125 379.598 65.5859 378.966H67.37C67.3928 379.311 67.5083 379.61 67.7166 379.864C67.9287 380.114 68.2053 380.307 68.5462 380.443C68.8871 380.58 69.2659 380.648 69.6825 380.648C70.1409 380.648 70.5462 380.568 70.8984 380.409C71.2545 380.25 71.5329 380.028 71.7337 379.744C71.9344 379.456 72.0348 379.125 72.0348 378.75C72.0348 378.36 71.9344 378.017 71.7337 377.722C71.5367 377.422 71.2469 377.187 70.8643 377.017C70.4856 376.847 70.0272 376.761 69.4893 376.761H68.5064V375.33H69.4893C69.9212 375.33 70.3 375.252 70.6257 375.097C70.9553 374.941 71.2128 374.725 71.3984 374.449C71.584 374.169 71.6768 373.841 71.6768 373.466C71.6768 373.106 71.5954 372.794 71.4325 372.528C71.2734 372.259 71.0462 372.049 70.7507 371.898C70.459 371.746 70.1143 371.67 69.7166 371.67C69.3378 371.67 68.9837 371.741 68.6541 371.881C68.3284 372.017 68.0632 372.214 67.8587 372.472C67.6541 372.725 67.5443 373.03 67.5291 373.386H65.8303C65.8492 372.758 66.0348 372.205 66.3871 371.727C66.7431 371.25 67.2128 370.877 67.7962 370.608C68.3795 370.339 69.0272 370.205 69.7393 370.205C70.4856 370.205 71.1295 370.35 71.6712 370.642C72.2166 370.93 72.6371 371.314 72.9325 371.795C73.2318 372.277 73.3795 372.803 73.3757 373.375C73.3795 374.027 73.1977 374.58 72.8303 375.034C72.4666 375.489 71.9818 375.794 71.3757 375.949V376.04C72.1484 376.157 72.7469 376.464 73.1712 376.96C73.5992 377.456 73.8113 378.072 73.8075 378.807C73.8113 379.447 73.6333 380.021 73.2734 380.528C72.9174 381.036 72.4306 381.436 71.8132 381.727C71.1958 382.015 70.4893 382.159 69.6939 382.159Z" fill="black"/>
<g clip-path="url(#clip1_3554_830)">
<path d="M77.487 338.806L82.7706 279H24L24.069 279.776L29.2752 338.814L29.3194 339.306L53.163 346H53.5386L77.4373 339.3L77.4815 338.809L77.487 338.806ZM53.4364 292.062H70.5132L69.9995 298.092L53.1519 305.663L53.4336 307.026H69.2428L67.4227 328.105L53.3756 332.042L39.3341 328.111L38.4503 318.016H44.231L44.695 323.133L44.7391 323.63L53.2596 325.92H53.627L62.0535 323.552L62.095 323.058L62.8904 313.605L62.9539 312.835H37.967L37.4422 306.769L54.867 299.228L54.5909 297.861H36.6937L36.1828 292.054H53.417L53.4364 292.062Z" fill="black"/>
</g>
<path d="M18.8636 497.364H20.6136V505.614C20.6136 506.36 20.4659 506.998 20.1705 507.528C19.8788 508.059 19.4678 508.464 18.9375 508.744C18.4072 509.021 17.786 509.159 17.0739 509.159C16.4186 509.159 15.8295 509.04 15.3068 508.801C14.7879 508.562 14.3769 508.216 14.0739 507.761C13.7746 507.303 13.625 506.746 13.625 506.091H15.3693C15.3693 506.413 15.4432 506.691 15.5909 506.926C15.7424 507.161 15.9489 507.345 16.2102 507.477C16.4754 507.606 16.7784 507.67 17.1193 507.67C17.4905 507.67 17.8049 507.593 18.0625 507.438C18.3239 507.278 18.5227 507.045 18.6591 506.739C18.7955 506.432 18.8636 506.057 18.8636 505.614V497.364ZM25.5724 509.193C25.0194 509.193 24.5194 509.091 24.0724 508.886C23.6255 508.678 23.2713 508.377 23.0099 507.983C22.7524 507.589 22.6236 507.106 22.6236 506.534C22.6236 506.042 22.7183 505.636 22.9077 505.318C23.0971 505 23.3527 504.748 23.6747 504.562C23.9967 504.377 24.3565 504.237 24.7543 504.142C25.152 504.047 25.5573 503.975 25.9702 503.926C26.4929 503.866 26.9171 503.816 27.2429 503.778C27.5687 503.737 27.8054 503.67 27.9531 503.58C28.1009 503.489 28.1747 503.341 28.1747 503.136V503.097C28.1747 502.6 28.0346 502.216 27.7543 501.943C27.4777 501.67 27.0649 501.534 26.5156 501.534C25.9437 501.534 25.4929 501.661 25.1634 501.915C24.8376 502.165 24.6122 502.443 24.4872 502.75L22.8906 502.386C23.08 501.856 23.3565 501.428 23.7202 501.102C24.0876 500.773 24.5099 500.534 24.9872 500.386C25.4645 500.235 25.9664 500.159 26.4929 500.159C26.8414 500.159 27.2107 500.201 27.6009 500.284C27.9948 500.364 28.3622 500.511 28.7031 500.727C29.0478 500.943 29.33 501.252 29.5497 501.653C29.7694 502.051 29.8793 502.568 29.8793 503.205V509H28.2202V507.807H28.152C28.0421 508.027 27.8774 508.242 27.6577 508.455C27.438 508.667 27.1558 508.843 26.8111 508.983C26.4664 509.123 26.0535 509.193 25.5724 509.193ZM25.9418 507.83C26.4115 507.83 26.813 507.737 27.1463 507.551C27.4834 507.366 27.7391 507.123 27.9134 506.824C28.0914 506.521 28.1804 506.197 28.1804 505.852V504.727C28.1198 504.788 28.0024 504.845 27.8281 504.898C27.6577 504.947 27.4626 504.991 27.2429 505.028C27.0232 505.062 26.8092 505.095 26.6009 505.125C26.3925 505.152 26.2183 505.174 26.0781 505.193C25.7486 505.235 25.4474 505.305 25.1747 505.403C24.9058 505.502 24.6899 505.644 24.527 505.83C24.3679 506.011 24.2884 506.254 24.2884 506.557C24.2884 506.977 24.4437 507.295 24.7543 507.511C25.0649 507.723 25.4607 507.83 25.9418 507.83ZM39.2955 500.273L36.1307 509H34.3125L31.142 500.273H32.9659L35.1761 506.989H35.267L37.4716 500.273H39.2955ZM43.1818 509.193C42.6288 509.193 42.1288 509.091 41.6818 508.886C41.2348 508.678 40.8807 508.377 40.6193 507.983C40.3617 507.589 40.233 507.106 40.233 506.534C40.233 506.042 40.3277 505.636 40.517 505.318C40.7064 505 40.9621 504.748 41.2841 504.562C41.6061 504.377 41.9659 504.237 42.3636 504.142C42.7614 504.047 43.1667 503.975 43.5795 503.926C44.1023 503.866 44.5265 503.816 44.8523 503.778C45.178 503.737 45.4148 503.67 45.5625 503.58C45.7102 503.489 45.7841 503.341 45.7841 503.136V503.097C45.7841 502.6 45.6439 502.216 45.3636 501.943C45.0871 501.67 44.6742 501.534 44.125 501.534C43.553 501.534 43.1023 501.661 42.7727 501.915C42.447 502.165 42.2216 502.443 42.0966 502.75L40.5 502.386C40.6894 501.856 40.9659 501.428 41.3295 501.102C41.697 500.773 42.1193 500.534 42.5966 500.386C43.0739 500.235 43.5758 500.159 44.1023 500.159C44.4508 500.159 44.8201 500.201 45.2102 500.284C45.6042 500.364 45.9716 500.511 46.3125 500.727C46.6572 500.943 46.9394 501.252 47.1591 501.653C47.3788 502.051 47.4886 502.568 47.4886 503.205V509H45.8295V507.807H45.7614C45.6515 508.027 45.4867 508.242 45.267 508.455C45.0473 508.667 44.7652 508.843 44.4205 508.983C44.0758 509.123 43.6629 509.193 43.1818 509.193ZM43.5511 507.83C44.0208 507.83 44.4223 507.737 44.7557 507.551C45.0928 507.366 45.3485 507.123 45.5227 506.824C45.7008 506.521 45.7898 506.197 45.7898 505.852V504.727C45.7292 504.788 45.6117 504.845 45.4375 504.898C45.267 504.947 45.072 504.991 44.8523 505.028C44.6326 505.062 44.4186 505.095 44.2102 505.125C44.0019 505.152 43.8277 505.174 43.6875 505.193C43.358 505.235 43.0568 505.305 42.7841 505.403C42.5152 505.502 42.2992 505.644 42.1364 505.83C41.9773 506.011 41.8977 506.254 41.8977 506.557C41.8977 506.977 42.053 507.295 42.3636 507.511C42.6742 507.723 43.0701 507.83 43.5511 507.83ZM56.2344 500.42C56.1738 499.883 55.9238 499.466 55.4844 499.17C55.045 498.871 54.492 498.722 53.8253 498.722C53.348 498.722 52.9351 498.797 52.5866 498.949C52.2382 499.097 51.9673 499.301 51.7741 499.562C51.5848 499.82 51.4901 500.114 51.4901 500.443C51.4901 500.72 51.5545 500.958 51.6832 501.159C51.8158 501.36 51.9882 501.528 52.2003 501.665C52.4162 501.797 52.6473 501.909 52.8935 502C53.1397 502.087 53.3764 502.159 53.6037 502.216L54.7401 502.511C55.1113 502.602 55.492 502.725 55.8821 502.881C56.2723 503.036 56.634 503.241 56.9673 503.494C57.3007 503.748 57.5696 504.062 57.7741 504.438C57.9825 504.812 58.0866 505.261 58.0866 505.784C58.0866 506.443 57.9162 507.028 57.5753 507.54C57.2382 508.051 56.7476 508.455 56.1037 508.75C55.4635 509.045 54.6889 509.193 53.7798 509.193C52.9086 509.193 52.1548 509.055 51.5185 508.778C50.8821 508.502 50.384 508.11 50.0241 507.602C49.6643 507.091 49.4654 506.485 49.4276 505.784H51.1889C51.223 506.205 51.3594 506.555 51.598 506.835C51.8404 507.112 52.1491 507.318 52.5241 507.455C52.9029 507.587 53.3177 507.653 53.7685 507.653C54.2647 507.653 54.706 507.576 55.0923 507.42C55.4825 507.261 55.7893 507.042 56.0128 506.761C56.2363 506.477 56.348 506.146 56.348 505.767C56.348 505.422 56.2495 505.14 56.0526 504.92C55.8594 504.701 55.5961 504.519 55.2628 504.375C54.9332 504.231 54.5601 504.104 54.1435 503.994L52.7685 503.619C51.8366 503.366 51.098 502.992 50.5526 502.5C50.0109 502.008 49.7401 501.356 49.7401 500.545C49.7401 499.875 49.9219 499.29 50.2855 498.79C50.6491 498.29 51.1416 497.902 51.7628 497.625C52.384 497.345 53.0848 497.205 53.8651 497.205C54.6529 497.205 55.348 497.343 55.9503 497.619C56.5563 497.896 57.0336 498.277 57.3821 498.761C57.7306 499.242 57.9124 499.795 57.9276 500.42H56.2344ZM63.7244 509.176C62.8797 509.176 62.1525 508.985 61.5426 508.602C60.9366 508.216 60.4706 507.684 60.1449 507.006C59.8191 506.328 59.6562 505.551 59.6562 504.676C59.6562 503.79 59.8229 503.008 60.1562 502.33C60.4896 501.648 60.9593 501.116 61.5653 500.733C62.1714 500.35 62.8854 500.159 63.7074 500.159C64.3703 500.159 64.9612 500.282 65.4801 500.528C65.9991 500.771 66.4176 501.112 66.7358 501.551C67.0578 501.991 67.2491 502.504 67.3097 503.091H65.6562C65.5653 502.682 65.357 502.33 65.0312 502.034C64.7093 501.739 64.2775 501.591 63.7358 501.591C63.2623 501.591 62.8475 501.716 62.4915 501.966C62.1392 502.212 61.8646 502.564 61.6676 503.023C61.4706 503.477 61.3722 504.015 61.3722 504.636C61.3722 505.273 61.4688 505.822 61.6619 506.284C61.8551 506.746 62.1278 507.104 62.4801 507.358C62.8362 507.612 63.2547 507.739 63.7358 507.739C64.0578 507.739 64.3494 507.68 64.6108 507.562C64.8759 507.441 65.0975 507.269 65.2756 507.045C65.4574 506.822 65.5843 506.553 65.6562 506.239H67.3097C67.2491 506.803 67.0653 507.307 66.7585 507.75C66.4517 508.193 66.0407 508.542 65.5256 508.795C65.0142 509.049 64.4138 509.176 63.7244 509.176ZM69.1264 509V500.273H70.7685V501.659H70.8594C71.0185 501.189 71.2988 500.82 71.7003 500.551C72.1056 500.278 72.5639 500.142 73.0753 500.142C73.1813 500.142 73.3063 500.146 73.4503 500.153C73.598 500.161 73.7135 500.17 73.7969 500.182V501.807C73.7287 501.788 73.6075 501.767 73.4332 501.744C73.259 501.718 73.0848 501.705 72.9105 501.705C72.509 501.705 72.151 501.79 71.8366 501.96C71.526 502.127 71.2798 502.36 71.098 502.659C70.9162 502.955 70.8253 503.292 70.8253 503.67V509H69.1264ZM75.267 509V500.273H76.9659V509H75.267ZM76.125 498.926C75.8295 498.926 75.5758 498.828 75.3636 498.631C75.1553 498.43 75.0511 498.191 75.0511 497.915C75.0511 497.634 75.1553 497.396 75.3636 497.199C75.5758 496.998 75.8295 496.898 76.125 496.898C76.4205 496.898 76.6723 496.998 76.8807 497.199C77.0928 497.396 77.1989 497.634 77.1989 497.915C77.1989 498.191 77.0928 498.43 76.8807 498.631C76.6723 498.828 76.4205 498.926 76.125 498.926ZM79.2514 512.273V500.273H80.9105V501.688H81.0526C81.151 501.506 81.2931 501.295 81.4787 501.057C81.6643 500.818 81.9219 500.61 82.2514 500.432C82.581 500.25 83.0166 500.159 83.5582 500.159C84.2628 500.159 84.8916 500.337 85.4446 500.693C85.9976 501.049 86.4313 501.562 86.7457 502.233C87.0639 502.903 87.223 503.71 87.223 504.653C87.223 505.597 87.0658 506.405 86.7514 507.08C86.437 507.75 86.0052 508.267 85.456 508.631C84.9067 508.991 84.2798 509.17 83.5753 509.17C83.045 509.17 82.6113 509.081 82.2741 508.903C81.9408 508.725 81.6795 508.517 81.4901 508.278C81.3007 508.04 81.1548 507.828 81.0526 507.642H80.9503V512.273H79.2514ZM80.9162 504.636C80.9162 505.25 81.0052 505.788 81.1832 506.25C81.3613 506.712 81.6188 507.074 81.956 507.335C82.2931 507.593 82.706 507.722 83.1946 507.722C83.7022 507.722 84.1264 507.587 84.4673 507.318C84.8082 507.045 85.0658 506.676 85.2401 506.21C85.4181 505.744 85.5071 505.22 85.5071 504.636C85.5071 504.061 85.42 503.544 85.2457 503.085C85.0753 502.627 84.8177 502.265 84.473 502C84.1321 501.735 83.706 501.602 83.1946 501.602C82.7022 501.602 82.2855 501.729 81.9446 501.983C81.6075 502.237 81.3518 502.591 81.1776 503.045C81.0033 503.5 80.9162 504.03 80.9162 504.636ZM93.2003 500.273V501.636H88.4332V500.273H93.2003ZM89.7116 498.182H91.4105V506.438C91.4105 506.767 91.4598 507.015 91.5582 507.182C91.6567 507.345 91.7836 507.456 91.9389 507.517C92.098 507.574 92.2704 507.602 92.456 507.602C92.5923 507.602 92.7116 507.593 92.8139 507.574C92.9162 507.555 92.9957 507.54 93.0526 507.528L93.3594 508.932C93.2609 508.97 93.1207 509.008 92.9389 509.045C92.7571 509.087 92.5298 509.11 92.2571 509.114C91.8101 509.121 91.3935 509.042 91.0071 508.875C90.6207 508.708 90.3082 508.451 90.0696 508.102C89.831 507.754 89.7116 507.316 89.7116 506.79V498.182Z" fill="black"/>
<path d="M22 406V469H85V406H22ZM56.2844 455.134C56.2844 461.266 52.6844 464.064 47.4391 464.064C42.7 464.064 39.9578 461.617 38.5516 458.65L43.375 455.739C44.3031 457.384 45.1469 458.777 47.1859 458.777C49.1266 458.777 50.3641 458.017 50.3641 455.05V434.927H56.2844V455.134ZM70.2906 464.064C64.7922 464.064 61.2344 461.448 59.5047 458.017L64.3281 455.233C65.5938 457.3 67.2531 458.833 70.1641 458.833C72.6109 458.833 74.1859 457.609 74.1859 455.908C74.1859 453.883 72.5828 453.166 69.8687 451.97L68.3922 451.337C64.1172 449.523 61.2906 447.231 61.2906 442.408C61.2906 437.964 64.6797 434.589 69.9531 434.589C73.7219 434.589 76.4219 435.897 78.3625 439.328L73.75 442.281C72.7375 440.467 71.6406 439.75 69.9391 439.75C68.2094 439.75 67.1125 440.847 67.1125 442.281C67.1125 444.053 68.2094 444.77 70.7547 445.881L72.2313 446.514C77.2656 448.666 80.0922 450.873 80.0922 455.823C80.0922 461.139 75.9016 464.064 70.2906 464.064Z" fill="black"/>
<path d="M39.7969 627.42C39.7363 626.883 39.4863 626.466 39.0469 626.17C38.6075 625.871 38.0545 625.722 37.3878 625.722C36.9105 625.722 36.4976 625.797 36.1491 625.949C35.8007 626.097 35.5298 626.301 35.3366 626.562C35.1473 626.82 35.0526 627.114 35.0526 627.443C35.0526 627.72 35.117 627.958 35.2457 628.159C35.3783 628.36 35.5507 628.528 35.7628 628.665C35.9787 628.797 36.2098 628.909 36.456 629C36.7022 629.087 36.9389 629.159 37.1662 629.216L38.3026 629.511C38.6738 629.602 39.0545 629.725 39.4446 629.881C39.8348 630.036 40.1965 630.241 40.5298 630.494C40.8632 630.748 41.1321 631.062 41.3366 631.438C41.545 631.812 41.6491 632.261 41.6491 632.784C41.6491 633.443 41.4787 634.028 41.1378 634.54C40.8007 635.051 40.3101 635.455 39.6662 635.75C39.026 636.045 38.2514 636.193 37.3423 636.193C36.4711 636.193 35.7173 636.055 35.081 635.778C34.4446 635.502 33.9465 635.11 33.5866 634.602C33.2268 634.091 33.0279 633.485 32.9901 632.784H34.7514C34.7855 633.205 34.9219 633.555 35.1605 633.835C35.4029 634.112 35.7116 634.318 36.0866 634.455C36.4654 634.587 36.8802 634.653 37.331 634.653C37.8272 634.653 38.2685 634.576 38.6548 634.42C39.045 634.261 39.3518 634.042 39.5753 633.761C39.7988 633.477 39.9105 633.146 39.9105 632.767C39.9105 632.422 39.812 632.14 39.6151 631.92C39.4219 631.701 39.1586 631.519 38.8253 631.375C38.4957 631.231 38.1226 631.104 37.706 630.994L36.331 630.619C35.3991 630.366 34.6605 629.992 34.1151 629.5C33.5734 629.008 33.3026 628.356 33.3026 627.545C33.3026 626.875 33.4844 626.29 33.848 625.79C34.2116 625.29 34.7041 624.902 35.3253 624.625C35.9465 624.345 36.6473 624.205 37.4276 624.205C38.2154 624.205 38.9105 624.343 39.5128 624.619C40.1188 624.896 40.5961 625.277 40.9446 625.761C41.2931 626.242 41.4749 626.795 41.4901 627.42H39.7969ZM53.4119 628.148H51.6392C51.571 627.769 51.4441 627.436 51.2585 627.148C51.0729 626.86 50.8456 626.616 50.5767 626.415C50.3078 626.214 50.0066 626.062 49.6733 625.96C49.3438 625.858 48.9934 625.807 48.6222 625.807C47.9517 625.807 47.3513 625.975 46.821 626.312C46.2945 626.65 45.8778 627.144 45.571 627.795C45.268 628.447 45.1165 629.242 45.1165 630.182C45.1165 631.129 45.268 631.928 45.571 632.58C45.8778 633.231 46.2964 633.723 46.8267 634.057C47.357 634.39 47.9536 634.557 48.6165 634.557C48.9839 634.557 49.3324 634.508 49.6619 634.409C49.9953 634.307 50.2964 634.157 50.5653 633.96C50.8343 633.763 51.0616 633.523 51.2472 633.239C51.4366 632.951 51.5672 632.621 51.6392 632.25L53.4119 632.256C53.3172 632.828 53.1335 633.354 52.8608 633.835C52.5919 634.312 52.2453 634.725 51.821 635.074C51.4006 635.419 50.9195 635.686 50.3778 635.875C49.8362 636.064 49.2453 636.159 48.6051 636.159C47.5975 636.159 46.6998 635.92 45.9119 635.443C45.1241 634.962 44.5028 634.275 44.0483 633.381C43.5975 632.487 43.3722 631.42 43.3722 630.182C43.3722 628.939 43.5994 627.873 44.054 626.983C44.5085 626.089 45.1297 625.403 45.9176 624.926C46.7055 624.445 47.6013 624.205 48.6051 624.205C49.2225 624.205 49.7983 624.294 50.3324 624.472C50.8703 624.646 51.3532 624.903 51.7812 625.244C52.2093 625.581 52.5634 625.994 52.8438 626.483C53.1241 626.968 53.3134 627.523 53.4119 628.148ZM61.8594 627.42C61.7988 626.883 61.5488 626.466 61.1094 626.17C60.67 625.871 60.117 625.722 59.4503 625.722C58.973 625.722 58.5601 625.797 58.2116 625.949C57.8632 626.097 57.5923 626.301 57.3991 626.562C57.2098 626.82 57.1151 627.114 57.1151 627.443C57.1151 627.72 57.1795 627.958 57.3082 628.159C57.4408 628.36 57.6132 628.528 57.8253 628.665C58.0412 628.797 58.2723 628.909 58.5185 629C58.7647 629.087 59.0014 629.159 59.2287 629.216L60.3651 629.511C60.7363 629.602 61.117 629.725 61.5071 629.881C61.8973 630.036 62.259 630.241 62.5923 630.494C62.9257 630.748 63.1946 631.062 63.3991 631.438C63.6075 631.812 63.7116 632.261 63.7116 632.784C63.7116 633.443 63.5412 634.028 63.2003 634.54C62.8632 635.051 62.3726 635.455 61.7287 635.75C61.0885 636.045 60.3139 636.193 59.4048 636.193C58.5336 636.193 57.7798 636.055 57.1435 635.778C56.5071 635.502 56.009 635.11 55.6491 634.602C55.2893 634.091 55.0904 633.485 55.0526 632.784H56.8139C56.848 633.205 56.9844 633.555 57.223 633.835C57.4654 634.112 57.7741 634.318 58.1491 634.455C58.5279 634.587 58.9427 634.653 59.3935 634.653C59.8897 634.653 60.331 634.576 60.7173 634.42C61.1075 634.261 61.4143 634.042 61.6378 633.761C61.8613 633.477 61.973 633.146 61.973 632.767C61.973 632.422 61.8745 632.14 61.6776 631.92C61.4844 631.701 61.2211 631.519 60.8878 631.375C60.5582 631.231 60.1851 631.104 59.7685 630.994L58.3935 630.619C57.4616 630.366 56.723 629.992 56.1776 629.5C55.6359 629.008 55.3651 628.356 55.3651 627.545C55.3651 626.875 55.5469 626.29 55.9105 625.79C56.2741 625.29 56.7666 624.902 57.3878 624.625C58.009 624.345 58.7098 624.205 59.4901 624.205C60.2779 624.205 60.973 624.343 61.5753 624.619C62.1813 624.896 62.6586 625.277 63.0071 625.761C63.3556 626.242 63.5374 626.795 63.5526 627.42H61.8594ZM72.1562 627.42C72.0956 626.883 71.8456 626.466 71.4062 626.17C70.9669 625.871 70.4138 625.722 69.7472 625.722C69.2699 625.722 68.857 625.797 68.5085 625.949C68.16 626.097 67.8892 626.301 67.696 626.562C67.5066 626.82 67.4119 627.114 67.4119 627.443C67.4119 627.72 67.4763 627.958 67.6051 628.159C67.7377 628.36 67.91 628.528 68.1222 628.665C68.3381 628.797 68.5691 628.909 68.8153 629C69.0616 629.087 69.2983 629.159 69.5256 629.216L70.6619 629.511C71.0331 629.602 71.4138 629.725 71.804 629.881C72.1941 630.036 72.5559 630.241 72.8892 630.494C73.2225 630.748 73.4915 631.062 73.696 631.438C73.9044 631.812 74.0085 632.261 74.0085 632.784C74.0085 633.443 73.8381 634.028 73.4972 634.54C73.16 635.051 72.6695 635.455 72.0256 635.75C71.3854 636.045 70.6108 636.193 69.7017 636.193C68.8305 636.193 68.0767 636.055 67.4403 635.778C66.804 635.502 66.3059 635.11 65.946 634.602C65.5862 634.091 65.3873 633.485 65.3494 632.784H67.1108C67.1449 633.205 67.2813 633.555 67.5199 633.835C67.7623 634.112 68.071 634.318 68.446 634.455C68.8248 634.587 69.2396 634.653 69.6903 634.653C70.1866 634.653 70.6278 634.576 71.0142 634.42C71.4044 634.261 71.7112 634.042 71.9347 633.761C72.1581 633.477 72.2699 633.146 72.2699 632.767C72.2699 632.422 72.1714 632.14 71.9744 631.92C71.7813 631.701 71.518 631.519 71.1847 631.375C70.8551 631.231 70.482 631.104 70.0653 630.994L68.6903 630.619C67.7585 630.366 67.0199 629.992 66.4744 629.5C65.9328 629.008 65.6619 628.356 65.6619 627.545C65.6619 626.875 65.8438 626.29 66.2074 625.79C66.571 625.29 67.0634 624.902 67.6847 624.625C68.3059 624.345 69.0066 624.205 69.7869 624.205C70.5748 624.205 71.2699 624.343 71.8722 624.619C72.4782 624.896 72.9555 625.277 73.304 625.761C73.6525 626.242 73.8343 626.795 73.8494 627.42H72.1562Z" fill="black"/>
<path d="M53.858 567.153C52.8509 567.616 51.7475 568.219 49.5386 569.431C48.7011 569.902 47.8259 570.373 47.0115 570.817C46.9549 570.761 46.8963 570.689 46.8398 570.631C42.4701 565.962 34.3882 562.664 34.7316 556.393C34.8593 554.109 35.6445 548.113 50.2526 540.831C62.2749 534.905 71.8412 536.547 73.4932 540.188C75.8675 545.378 68.3656 555.037 55.9497 556.437C54.5755 556.716 53.1563 556.682 51.7969 556.339C50.4375 555.995 49.1727 555.351 48.096 554.452C47.4386 553.738 47.3402 553.697 47.0973 553.839C46.6974 554.048 46.9549 554.695 47.0973 555.066C47.5709 555.923 48.2116 556.677 48.9816 557.283C49.7515 557.888 50.6351 558.334 51.58 558.592C56.466 559.648 61.5603 559.143 66.1441 557.149C73.6691 554.237 79.5441 546.14 77.8231 539.352C76.0957 532.47 64.6722 530.201 53.8643 534.04C47.0958 536.321 40.8423 539.912 35.4602 544.608C29.5056 550.177 28.5634 555.018 28.9487 557.045C30.3347 564.241 40.2549 568.924 44.2331 572.394C44.0237 572.509 43.8478 572.603 43.6908 572.693C41.7059 573.679 34.1391 577.634 32.2526 581.818C30.1107 586.558 32.596 589.956 34.2375 590.413C36.7112 591.005 39.3083 590.81 41.6659 589.855C44.0236 588.9 46.0242 587.233 47.3883 585.086C48.5468 583.306 49.2581 581.272 49.4619 579.158C49.6656 577.043 49.3558 574.911 48.5587 572.942C49.029 572.567 49.5306 572.233 50.0579 571.944C51.0712 571.345 52.0365 570.754 52.8928 570.298C55.8248 568.925 59.0246 568.217 62.2623 568.227C69.0586 569.027 70.4007 573.267 70.1432 575.053C70.0227 575.686 69.7679 576.287 69.3959 576.814C69.0239 577.341 68.5434 577.782 67.9866 578.108C67.5156 578.407 67.3585 578.508 67.4004 578.721C67.4569 579.035 67.6851 579.021 68.085 578.964C69.1062 578.641 70.0058 578.017 70.6657 577.174C71.3256 576.33 71.715 575.307 71.7826 574.238C71.992 570.051 67.9992 565.457 60.9307 565.499C58.8142 565.503 56.7188 565.92 54.7625 566.728C54.4485 566.858 54.1435 566.997 53.8476 567.147L53.858 567.153ZM43.7557 583.566C41.4986 586.022 38.358 586.95 37.0012 586.164C35.5356 585.327 36.1156 581.694 38.8856 579.096C40.5262 577.618 42.2994 576.294 44.1828 575.141C44.5115 574.931 44.9973 574.655 45.5814 574.303L45.7385 574.217L46.0818 574.008C46.5759 575.664 46.6208 577.422 46.2121 579.102C45.8034 580.781 44.9556 582.322 43.7557 583.566Z" fill="black"/>
<path d="M37.544 763V751.364H41.8054C42.6312 751.364 43.3149 751.5 43.8565 751.773C44.3982 752.042 44.8035 752.407 45.0724 752.869C45.3414 753.328 45.4759 753.845 45.4759 754.42C45.4759 754.905 45.3868 755.314 45.2088 755.648C45.0308 755.977 44.7921 756.242 44.4929 756.443C44.1974 756.64 43.8717 756.784 43.5156 756.875V756.989C43.902 757.008 44.2789 757.133 44.6463 757.364C45.0175 757.591 45.3243 757.915 45.5668 758.335C45.8092 758.756 45.9304 759.267 45.9304 759.869C45.9304 760.464 45.7902 760.998 45.5099 761.472C45.2334 761.941 44.8054 762.314 44.2259 762.591C43.6463 762.864 42.9058 763 42.0043 763H37.544ZM39.2997 761.494H41.8338C42.6747 761.494 43.277 761.331 43.6406 761.006C44.0043 760.68 44.1861 760.273 44.1861 759.784C44.1861 759.417 44.0933 759.08 43.9077 758.773C43.7221 758.466 43.4569 758.222 43.1122 758.04C42.7713 757.858 42.366 757.767 41.8963 757.767H39.2997V761.494ZM39.2997 756.398H41.652C42.0459 756.398 42.4001 756.322 42.7145 756.17C43.0327 756.019 43.2846 755.807 43.4702 755.534C43.6596 755.258 43.7543 754.932 43.7543 754.557C43.7543 754.076 43.5857 753.672 43.2486 753.347C42.9115 753.021 42.3944 752.858 41.6974 752.858H39.2997V756.398ZM48.0128 763V751.364H55.3082V752.875H49.7685V756.42H54.9276V757.926H49.7685V761.489H55.3764V763H48.0128ZM57.6534 751.364H59.7841L63.4886 760.409H63.625L67.3295 751.364H69.4602V763H67.7898V754.58H67.6818L64.25 762.983H62.8636L59.4318 754.574H59.3239V763H57.6534V751.364Z" fill="black"/>
<g clip-path="url(#clip2_3554_830)">
<path d="M20 665.332H35.4301V670.895H20V665.332ZM20 655H35.4301V660.563H20V655ZM47.6839 675.584H20V681.147H46.6465C49.5639 681.147 56.3712 681.227 58.8998 686.234V683.134C57.668 678.207 54.0374 675.584 47.6836 675.584H47.6839ZM47.7484 685.916H20V691.479H46.6465C53.1297 691.479 57.2142 691.797 58.8998 692.91V690.446C57.603 686.552 52.1572 685.916 47.7486 685.916H47.7484ZM47.6839 712.142H20V706.579H46.6465C49.5639 706.579 56.3712 706.5 58.8998 701.493V704.592C57.668 709.52 54.0374 712.142 47.6836 712.142H47.6839ZM47.7484 701.811H20V696.248H46.6465C53.1297 696.248 57.2142 695.93 58.8998 694.817V697.281C57.603 701.175 52.1572 701.811 47.7486 701.811H47.7484ZM65.6424 721.759H86V718.342H66.2258C64.4752 718.342 60.3263 718.262 58.8351 715.321V717.229C59.5482 720.17 61.7525 721.759 65.6424 721.759ZM65.5776 715.48H85.9353V712.063H66.2258C62.2709 712.063 59.8073 711.904 58.8348 711.189V712.699C59.6126 715.083 62.9191 715.48 65.5774 715.48H65.5776Z" fill="black"/>
</g>
<path d="M32.4112 890V878.364H36.5589C37.4605 878.364 38.2086 878.519 38.8033 878.83C39.4018 879.14 39.8487 879.57 40.1442 880.119C40.4396 880.665 40.5874 881.295 40.5874 882.011C40.5874 882.723 40.4377 883.35 40.1385 883.892C39.843 884.43 39.3961 884.848 38.7976 885.148C38.2029 885.447 37.4548 885.597 36.5533 885.597H33.4112V884.085H36.3942C36.9624 884.085 37.4245 884.004 37.7805 883.841C38.1404 883.678 38.4036 883.441 38.5703 883.131C38.737 882.82 38.8203 882.447 38.8203 882.011C38.8203 881.572 38.7351 881.191 38.5646 880.869C38.398 880.547 38.1347 880.301 37.7749 880.131C37.4188 879.956 36.951 879.869 36.3714 879.869H34.1669V890H32.4112ZM38.1555 884.75L41.0305 890H39.0305L36.2124 884.75H38.1555ZM46.2393 890.176C45.3795 890.176 44.639 889.992 44.0178 889.625C43.4003 889.254 42.9231 888.733 42.5859 888.062C42.2526 887.388 42.0859 886.598 42.0859 885.693C42.0859 884.799 42.2526 884.011 42.5859 883.33C42.9231 882.648 43.3928 882.116 43.995 881.733C44.6011 881.35 45.3094 881.159 46.12 881.159C46.6125 881.159 47.0897 881.241 47.5518 881.403C48.014 881.566 48.4287 881.822 48.7962 882.17C49.1636 882.519 49.4534 882.972 49.6655 883.528C49.8776 884.081 49.9837 884.754 49.9837 885.545V886.148H43.0462V884.875H48.3189C48.3189 884.428 48.228 884.032 48.0462 883.688C47.8643 883.339 47.6087 883.064 47.2791 882.864C46.9534 882.663 46.5708 882.562 46.1314 882.562C45.6541 882.562 45.2375 882.68 44.8814 882.915C44.5291 883.146 44.2564 883.449 44.0632 883.824C43.8738 884.195 43.7791 884.598 43.7791 885.034V886.028C43.7791 886.612 43.8814 887.108 44.0859 887.517C44.2943 887.926 44.584 888.239 44.9553 888.455C45.3265 888.667 45.7602 888.773 46.2564 888.773C46.5784 888.773 46.8719 888.727 47.1371 888.636C47.4022 888.542 47.6314 888.402 47.8246 888.216C48.0178 888.03 48.1655 887.801 48.2678 887.528L49.8757 887.818C49.7469 888.292 49.5159 888.706 49.1825 889.062C48.853 889.415 48.4382 889.689 47.9382 889.886C47.442 890.08 46.8757 890.176 46.2393 890.176ZM54.4084 890.193C53.8554 890.193 53.3554 890.091 52.9084 889.886C52.4614 889.678 52.1072 889.377 51.8459 888.983C51.5883 888.589 51.4595 888.106 51.4595 887.534C51.4595 887.042 51.5542 886.636 51.7436 886.318C51.933 886 52.1887 885.748 52.5107 885.562C52.8326 885.377 53.1925 885.237 53.5902 885.142C53.9879 885.047 54.3932 884.975 54.8061 884.926C55.3288 884.866 55.7531 884.816 56.0788 884.778C56.4046 884.737 56.6413 884.67 56.7891 884.58C56.9368 884.489 57.0107 884.341 57.0107 884.136V884.097C57.0107 883.6 56.8705 883.216 56.5902 882.943C56.3137 882.67 55.9008 882.534 55.3516 882.534C54.7796 882.534 54.3288 882.661 53.9993 882.915C53.6735 883.165 53.4482 883.443 53.3232 883.75L51.7266 883.386C51.916 882.856 52.1925 882.428 52.5561 882.102C52.9235 881.773 53.3459 881.534 53.8232 881.386C54.3004 881.235 54.8023 881.159 55.3288 881.159C55.6773 881.159 56.0466 881.201 56.4368 881.284C56.8307 881.364 57.1982 881.511 57.5391 881.727C57.8838 881.943 58.166 882.252 58.3857 882.653C58.6054 883.051 58.7152 883.568 58.7152 884.205V890H57.0561V888.807H56.9879C56.8781 889.027 56.7133 889.242 56.4936 889.455C56.2739 889.667 55.9917 889.843 55.647 889.983C55.3023 890.123 54.8894 890.193 54.4084 890.193ZM54.7777 888.83C55.2474 888.83 55.6489 888.737 55.9822 888.551C56.3194 888.366 56.575 888.123 56.7493 887.824C56.9273 887.521 57.0163 887.197 57.0163 886.852V885.727C56.9557 885.788 56.8383 885.845 56.6641 885.898C56.4936 885.947 56.2985 885.991 56.0788 886.028C55.8591 886.062 55.6451 886.095 55.4368 886.125C55.2285 886.152 55.0542 886.174 54.9141 886.193C54.5845 886.235 54.2834 886.305 54.0107 886.403C53.7417 886.502 53.5258 886.644 53.3629 886.83C53.2038 887.011 53.1243 887.254 53.1243 887.557C53.1243 887.977 53.2796 888.295 53.5902 888.511C53.9008 888.723 54.2966 888.83 54.7777 888.83ZM64.6541 890.176C63.8094 890.176 63.0821 889.985 62.4723 889.602C61.8662 889.216 61.4003 888.684 61.0746 888.006C60.7488 887.328 60.5859 886.551 60.5859 885.676C60.5859 884.79 60.7526 884.008 61.0859 883.33C61.4193 882.648 61.889 882.116 62.495 881.733C63.1011 881.35 63.8151 881.159 64.6371 881.159C65.3 881.159 65.8909 881.282 66.4098 881.528C66.9287 881.771 67.3473 882.112 67.6655 882.551C67.9875 882.991 68.1787 883.504 68.2393 884.091H66.5859C66.495 883.682 66.2867 883.33 65.9609 883.034C65.639 882.739 65.2071 882.591 64.6655 882.591C64.192 882.591 63.7772 882.716 63.4212 882.966C63.0689 883.212 62.7943 883.564 62.5973 884.023C62.4003 884.477 62.3018 885.015 62.3018 885.636C62.3018 886.273 62.3984 886.822 62.5916 887.284C62.7848 887.746 63.0575 888.104 63.4098 888.358C63.7659 888.612 64.1844 888.739 64.6655 888.739C64.9875 888.739 65.2791 888.68 65.5405 888.562C65.8056 888.441 66.0272 888.269 66.2053 888.045C66.3871 887.822 66.514 887.553 66.5859 887.239H68.2393C68.1787 887.803 67.995 888.307 67.6882 888.75C67.3814 889.193 66.9704 889.542 66.4553 889.795C65.9439 890.049 65.3435 890.176 64.6541 890.176ZM74.13 881.273V882.636H69.3629V881.273H74.13ZM70.6413 879.182H72.3402V887.438C72.3402 887.767 72.3894 888.015 72.4879 888.182C72.5864 888.345 72.7133 888.456 72.8686 888.517C73.0277 888.574 73.2 888.602 73.3857 888.602C73.522 888.602 73.6413 888.593 73.7436 888.574C73.8459 888.555 73.9254 888.54 73.9822 888.528L74.2891 889.932C74.1906 889.97 74.0504 890.008 73.8686 890.045C73.6868 890.087 73.4595 890.11 73.1868 890.114C72.7398 890.121 72.3232 890.042 71.9368 889.875C71.5504 889.708 71.2379 889.451 70.9993 889.102C70.7607 888.754 70.6413 888.316 70.6413 887.79V879.182Z" fill="black"/>
<path d="M89 817.067C89 812.297 83.027 807.776 73.868 804.974C75.983 795.641 75.044 788.213 70.904 785.834C69.9008 785.272 68.7655 784.989 67.616 785.015V788.285C68.291 788.285 68.834 788.42 69.29 788.669C71.285 789.815 72.152 794.171 71.477 799.778C71.315 801.158 71.051 802.61 70.727 804.092C67.6599 803.353 64.547 802.819 61.409 802.493C59.5396 799.914 57.5 797.462 55.304 795.155C60.089 790.709 64.58 788.273 67.634 788.273V785C63.596 785 58.313 787.877 52.97 792.866C47.63 787.91 42.344 785.06 38.309 785.06V788.33C41.348 788.33 45.854 790.754 50.639 795.17C48.584 797.33 46.529 799.778 44.576 802.493C41.4315 802.815 38.3131 803.354 35.243 804.107C34.9185 802.702 34.6632 801.283 34.478 799.853C33.788 794.243 34.64 789.887 36.623 788.729C37.061 788.465 37.634 788.345 38.309 788.345V785.075C37.079 785.075 35.96 785.339 34.994 785.894C30.869 788.273 29.945 795.683 32.072 804.989C22.943 807.809 17 812.312 17 817.067C17 821.837 22.973 826.358 32.132 829.157C30.017 838.493 30.956 845.921 35.096 848.297C36.05 848.855 37.166 849.119 38.396 849.119C42.434 849.119 47.717 846.242 53.06 841.253C58.4 846.212 63.683 849.059 67.721 849.059C68.8793 849.083 70.0233 848.8 71.036 848.237C75.161 845.861 76.085 838.451 73.958 829.145C83.057 826.343 89 821.822 89 817.067ZM69.89 807.278C69.32 809.24 68.6592 811.174 67.91 813.074C66.6835 810.688 65.3368 808.366 63.875 806.117C65.96 806.426 67.97 806.807 69.893 807.278H69.89ZM63.17 822.908C62.0712 824.826 60.8911 826.697 59.633 828.515C55.2298 828.903 50.8011 828.908 46.397 828.53C43.8708 824.922 41.6616 821.101 39.794 817.112C41.6587 813.113 43.8586 809.28 46.37 805.652C50.7722 805.263 55.1998 805.257 59.603 805.634C60.821 807.38 62.012 809.246 63.155 811.214C64.271 813.134 65.285 815.084 66.209 817.052C65.2747 819.044 64.2609 820.997 63.17 822.908ZM67.91 821C68.702 822.965 69.38 824.933 69.935 826.841C68.015 827.312 65.987 827.708 63.89 828.014C65.3457 825.744 66.6874 823.403 67.91 821ZM53.03 836.66C51.665 835.25 50.3 833.681 48.95 831.962C50.27 832.022 51.62 832.067 52.985 832.067C54.365 832.067 55.73 832.037 57.065 831.962C55.745 833.681 54.38 835.25 53.03 836.66ZM42.11 828.014C40.0872 827.721 38.0791 827.335 36.092 826.856C36.635 824.963 37.31 823.01 38.072 821.06C38.675 822.23 39.308 823.406 39.998 824.582C40.688 825.755 41.39 826.901 42.11 828.014ZM52.955 797.474C54.32 798.884 55.685 800.453 57.035 802.172C55.715 802.112 54.365 802.067 53 802.067C51.62 802.067 50.255 802.097 48.92 802.172C50.24 800.453 51.605 798.884 52.955 797.474ZM42.095 806.12C40.6396 808.385 39.2979 810.721 38.075 813.119C37.3046 811.206 36.6288 809.257 36.05 807.278C37.97 806.822 39.998 806.426 42.095 806.12ZM28.814 824.492C23.618 822.278 20.258 819.371 20.258 817.067C20.258 814.763 23.618 811.841 28.814 809.642C30.074 809.099 31.454 808.613 32.879 808.16C33.716 811.034 34.817 814.028 36.179 817.097C34.8931 819.984 33.8056 822.954 32.924 825.989C31.5304 825.557 30.1587 825.058 28.814 824.492ZM36.71 845.462C34.715 844.322 33.848 839.96 34.523 834.356C34.685 832.976 34.949 831.521 35.273 830.039C38.147 830.744 41.288 831.287 44.591 831.641C46.4605 834.22 48.5001 836.672 50.696 838.979C45.911 843.425 41.42 845.861 38.366 845.861C37.7898 845.867 37.221 845.731 36.71 845.465V845.462ZM71.522 834.281C72.212 839.888 71.36 844.247 69.377 845.405C68.939 845.669 68.366 845.786 67.691 845.786C64.652 845.786 60.146 843.365 55.361 838.946C57.5478 836.648 59.5736 834.202 61.424 831.626C64.5685 831.304 67.6869 830.765 70.757 830.012C71.096 831.494 71.357 832.916 71.522 834.281ZM77.171 824.492C75.911 825.035 74.531 825.521 73.106 825.974C72.2089 822.924 71.1064 819.938 69.806 817.037C71.156 813.986 72.239 811.007 73.061 808.145C74.4591 808.578 75.8357 809.078 77.186 809.642C82.382 811.856 85.742 814.763 85.742 817.067C85.727 819.371 82.367 822.293 77.171 824.492Z" fill="black"/>
<path d="M52.9849 823.775C54.7639 823.775 56.4701 823.068 57.7281 821.81C58.9861 820.552 59.6929 818.846 59.6929 817.067C59.6929 815.288 58.9861 813.582 57.7281 812.324C56.4701 811.066 54.7639 810.359 52.9849 810.359C51.2058 810.359 49.4996 811.066 48.2416 812.324C46.9836 813.582 46.2769 815.288 46.2769 817.067C46.2769 818.846 46.9836 820.552 48.2416 821.81C49.4996 823.068 51.2058 823.775 52.9849 823.775Z" fill="black"/>
<path d="M41.0277 1005.36H42.7777V1013.61C42.7777 1014.36 42.63 1015 42.3345 1015.53C42.0429 1016.06 41.6319 1016.46 41.1016 1016.74C40.5713 1017.02 39.95 1017.16 39.2379 1017.16C38.5826 1017.16 37.9936 1017.04 37.4709 1016.8C36.9519 1016.56 36.541 1016.22 36.2379 1015.76C35.9387 1015.3 35.7891 1014.75 35.7891 1014.09H37.5334C37.5334 1014.41 37.6072 1014.69 37.755 1014.93C37.9065 1015.16 38.1129 1015.34 38.3743 1015.48C38.6394 1015.61 38.9425 1015.67 39.2834 1015.67C39.6546 1015.67 39.969 1015.59 40.2266 1015.44C40.4879 1015.28 40.6868 1015.05 40.8232 1014.74C40.9595 1014.43 41.0277 1014.06 41.0277 1013.61V1005.36ZM47.7365 1017.19C47.1835 1017.19 46.6835 1017.09 46.2365 1016.89C45.7895 1016.68 45.4354 1016.38 45.174 1015.98C44.9164 1015.59 44.7876 1015.11 44.7876 1014.53C44.7876 1014.04 44.8823 1013.64 45.0717 1013.32C45.2611 1013 45.5168 1012.75 45.8388 1012.56C46.1607 1012.38 46.5206 1012.24 46.9183 1012.14C47.3161 1012.05 47.7214 1011.98 48.1342 1011.93C48.657 1011.87 49.0812 1011.82 49.407 1011.78C49.7327 1011.74 49.9695 1011.67 50.1172 1011.58C50.2649 1011.49 50.3388 1011.34 50.3388 1011.14V1011.1C50.3388 1010.6 50.1986 1010.22 49.9183 1009.94C49.6418 1009.67 49.2289 1009.53 48.6797 1009.53C48.1077 1009.53 47.657 1009.66 47.3274 1009.91C47.0017 1010.16 46.7763 1010.44 46.6513 1010.75L45.0547 1010.39C45.2441 1009.86 45.5206 1009.43 45.8842 1009.1C46.2517 1008.77 46.674 1008.53 47.1513 1008.39C47.6286 1008.23 48.1304 1008.16 48.657 1008.16C49.0054 1008.16 49.3748 1008.2 49.7649 1008.28C50.1589 1008.36 50.5263 1008.51 50.8672 1008.73C51.2119 1008.94 51.4941 1009.25 51.7138 1009.65C51.9335 1010.05 52.0433 1010.57 52.0433 1011.2V1017H50.3842V1015.81H50.3161C50.2062 1016.03 50.0414 1016.24 49.8217 1016.45C49.602 1016.67 49.3198 1016.84 48.9751 1016.98C48.6304 1017.12 48.2176 1017.19 47.7365 1017.19ZM48.1058 1015.83C48.5755 1015.83 48.977 1015.74 49.3104 1015.55C49.6475 1015.37 49.9032 1015.12 50.0774 1014.82C50.2554 1014.52 50.3445 1014.2 50.3445 1013.85V1012.73C50.2839 1012.79 50.1664 1012.84 49.9922 1012.9C49.8217 1012.95 49.6267 1012.99 49.407 1013.03C49.1873 1013.06 48.9732 1013.09 48.7649 1013.12C48.5566 1013.15 48.3823 1013.17 48.2422 1013.19C47.9126 1013.23 47.6115 1013.3 47.3388 1013.4C47.0698 1013.5 46.8539 1013.64 46.6911 1013.83C46.532 1014.01 46.4524 1014.25 46.4524 1014.56C46.4524 1014.98 46.6077 1015.3 46.9183 1015.51C47.2289 1015.72 47.6248 1015.83 48.1058 1015.83ZM61.4595 1008.27L58.2947 1017H56.4766L53.3061 1008.27H55.13L57.3402 1014.99H57.4311L59.6357 1008.27H61.4595ZM65.3459 1017.19C64.7929 1017.19 64.2929 1017.09 63.8459 1016.89C63.3989 1016.68 63.0447 1016.38 62.7834 1015.98C62.5258 1015.59 62.397 1015.11 62.397 1014.53C62.397 1014.04 62.4917 1013.64 62.6811 1013.32C62.8705 1013 63.1262 1012.75 63.4482 1012.56C63.7701 1012.38 64.13 1012.24 64.5277 1012.14C64.9254 1012.05 65.3307 1011.98 65.7436 1011.93C66.2663 1011.87 66.6906 1011.82 67.0163 1011.78C67.3421 1011.74 67.5788 1011.67 67.7266 1011.58C67.8743 1011.49 67.9482 1011.34 67.9482 1011.14V1011.1C67.9482 1010.6 67.808 1010.22 67.5277 1009.94C67.2512 1009.67 66.8383 1009.53 66.2891 1009.53C65.7171 1009.53 65.2663 1009.66 64.9368 1009.91C64.611 1010.16 64.3857 1010.44 64.2607 1010.75L62.6641 1010.39C62.8535 1009.86 63.13 1009.43 63.4936 1009.1C63.861 1008.77 64.2834 1008.53 64.7607 1008.39C65.2379 1008.23 65.7398 1008.16 66.2663 1008.16C66.6148 1008.16 66.9841 1008.2 67.3743 1008.28C67.7682 1008.36 68.1357 1008.51 68.4766 1008.73C68.8213 1008.94 69.1035 1009.25 69.3232 1009.65C69.5429 1010.05 69.6527 1010.57 69.6527 1011.2V1017H67.9936V1015.81H67.9254C67.8156 1016.03 67.6508 1016.24 67.4311 1016.45C67.2114 1016.67 66.9292 1016.84 66.5845 1016.98C66.2398 1017.12 65.8269 1017.19 65.3459 1017.19ZM65.7152 1015.83C66.1849 1015.83 66.5864 1015.74 66.9197 1015.55C67.2569 1015.37 67.5125 1015.12 67.6868 1014.82C67.8648 1014.52 67.9538 1014.2 67.9538 1013.85V1012.73C67.8932 1012.79 67.7758 1012.84 67.6016 1012.9C67.4311 1012.95 67.236 1012.99 67.0163 1013.03C66.7966 1013.06 66.5826 1013.09 66.3743 1013.12C66.166 1013.15 65.9917 1013.17 65.8516 1013.19C65.522 1013.23 65.2209 1013.3 64.9482 1013.4C64.6792 1013.5 64.4633 1013.64 64.3004 1013.83C64.1413 1014.01 64.0618 1014.25 64.0618 1014.56C64.0618 1014.98 64.2171 1015.3 64.5277 1015.51C64.8383 1015.72 65.2341 1015.83 65.7152 1015.83Z" fill="black"/>
<path d="M43.5567 964.676C43.5567 964.676 40.8027 966.281 45.512 966.818C51.218 967.475 54.1362 967.383 60.4182 966.186C60.4182 966.186 62.0675 967.23 64.3782 968.132C50.282 974.169 32.48 967.77 43.5545 964.676H43.5567ZM41.831 956.801C41.831 956.801 38.7372 959.085 43.4487 959.564C49.5575 960.197 54.359 960.257 62.6907 958.653C62.6907 958.653 63.8405 959.814 65.6585 960.455C48.6192 965.435 29.6337 960.842 41.8332 956.801H41.831ZM56.3502 943.432C59.8175 947.428 55.4345 951.026 55.4345 951.026C55.4345 951.026 64.2477 946.465 60.2045 940.772C56.4222 935.451 53.5152 932.816 69.2158 923.708C69.2158 923.708 44.5715 929.862 56.348 943.434L56.3502 943.432ZM74.9847 970.513C74.9847 970.513 77.0255 972.187 72.746 973.49C64.6122 975.949 38.8902 976.687 31.742 973.582C29.177 972.468 33.992 970.911 35.504 970.594C37.0857 970.243 37.988 970.315 37.988 970.315C35.1282 968.299 19.52 974.264 30.0567 975.974C58.8027 980.638 82.448 973.877 74.9847 970.513ZM44.8797 948.634C44.8797 948.634 31.7915 951.739 40.238 952.864C43.8132 953.343 50.9277 953.24 57.5607 952.677C62.972 952.218 68.4125 951.246 68.4125 951.246C68.4125 951.246 66.5022 952.065 65.1185 953.017C51.8277 956.509 26.1552 954.88 33.5487 951.307C39.7947 948.294 44.8797 948.634 44.8797 948.634ZM68.3517 961.758C81.8518 954.727 75.6058 947.988 71.2587 948.904C70.19 949.113 69.7108 949.316 69.7108 949.316C69.7108 949.316 70.0977 948.692 70.8605 948.425C79.4847 945.389 86.1178 957.364 68.0817 962.111C68.0817 962.1 68.2955 961.925 68.3517 961.76V961.758ZM60.2067 909C60.2067 909 67.6857 916.477 53.1057 927.983C41.4237 937.217 50.444 942.48 53.1057 948.492C46.286 942.338 41.282 936.927 44.6345 931.887C49.5665 924.469 63.2195 920.882 60.2067 909ZM46.2027 980.777C59.165 981.596 79.073 980.309 79.5568 974.18C79.5568 974.18 78.641 976.5 68.831 978.35C57.77 980.435 44.117 980.188 36.0192 978.854C36.0192 978.854 37.6842 980.224 46.2005 980.777H46.2027Z" fill="black"/>
<path d="M15.7891 1135.42C15.7285 1134.88 15.4785 1134.47 15.0391 1134.17C14.5997 1133.87 14.0466 1133.72 13.38 1133.72C12.9027 1133.72 12.4898 1133.8 12.1413 1133.95C11.7929 1134.1 11.522 1134.3 11.3288 1134.56C11.1394 1134.82 11.0447 1135.11 11.0447 1135.44C11.0447 1135.72 11.1091 1135.96 11.2379 1136.16C11.3705 1136.36 11.5429 1136.53 11.755 1136.66C11.9709 1136.8 12.2019 1136.91 12.4482 1137C12.6944 1137.09 12.9311 1137.16 13.1584 1137.22L14.2947 1137.51C14.666 1137.6 15.0466 1137.73 15.4368 1137.88C15.8269 1138.04 16.1887 1138.24 16.522 1138.49C16.8554 1138.75 17.1243 1139.06 17.3288 1139.44C17.5372 1139.81 17.6413 1140.26 17.6413 1140.78C17.6413 1141.44 17.4709 1142.03 17.13 1142.54C16.7929 1143.05 16.3023 1143.45 15.6584 1143.75C15.0182 1144.05 14.2436 1144.19 13.3345 1144.19C12.4633 1144.19 11.7095 1144.05 11.0732 1143.78C10.4368 1143.5 9.93868 1143.11 9.57884 1142.6C9.21899 1142.09 9.02012 1141.48 8.98224 1140.78H10.7436C10.7777 1141.2 10.9141 1141.55 11.1527 1141.84C11.3951 1142.11 11.7038 1142.32 12.0788 1142.45C12.4576 1142.59 12.8724 1142.65 13.3232 1142.65C13.8194 1142.65 14.2607 1142.58 14.647 1142.42C15.0372 1142.26 15.344 1142.04 15.5675 1141.76C15.791 1141.48 15.9027 1141.15 15.9027 1140.77C15.9027 1140.42 15.8042 1140.14 15.6072 1139.92C15.4141 1139.7 15.1508 1139.52 14.8175 1139.38C14.4879 1139.23 14.1148 1139.1 13.6982 1138.99L12.3232 1138.62C11.3913 1138.37 10.6527 1137.99 10.1072 1137.5C9.56558 1137.01 9.29474 1136.36 9.29474 1135.55C9.29474 1134.87 9.47656 1134.29 9.8402 1133.79C10.2038 1133.29 10.6963 1132.9 11.3175 1132.62C11.9387 1132.34 12.6394 1132.2 13.4197 1132.2C14.2076 1132.2 14.9027 1132.34 15.505 1132.62C16.111 1132.9 16.5883 1133.28 16.9368 1133.76C17.2853 1134.24 17.4671 1134.8 17.4822 1135.42H15.7891ZM19.603 1147.27V1135.27H21.2621V1136.69H21.4041C21.5026 1136.51 21.6446 1136.3 21.8303 1136.06C22.0159 1135.82 22.2734 1135.61 22.603 1135.43C22.9325 1135.25 23.3681 1135.16 23.9098 1135.16C24.6143 1135.16 25.2431 1135.34 25.7962 1135.69C26.3492 1136.05 26.7829 1136.56 27.0973 1137.23C27.4155 1137.9 27.5746 1138.71 27.5746 1139.65C27.5746 1140.6 27.4174 1141.41 27.103 1142.08C26.7886 1142.75 26.3568 1143.27 25.8075 1143.63C25.2583 1143.99 24.6314 1144.17 23.9268 1144.17C23.3965 1144.17 22.9628 1144.08 22.6257 1143.9C22.2924 1143.73 22.031 1143.52 21.8416 1143.28C21.6522 1143.04 21.5064 1142.83 21.4041 1142.64H21.3018V1147.27H19.603ZM21.2678 1139.64C21.2678 1140.25 21.3568 1140.79 21.5348 1141.25C21.7128 1141.71 21.9704 1142.07 22.3075 1142.34C22.6446 1142.59 23.0575 1142.72 23.5462 1142.72C24.0537 1142.72 24.478 1142.59 24.8189 1142.32C25.1598 1142.05 25.4174 1141.68 25.5916 1141.21C25.7696 1140.74 25.8587 1140.22 25.8587 1139.64C25.8587 1139.06 25.7715 1138.54 25.5973 1138.09C25.4268 1137.63 25.1693 1137.27 24.8246 1137C24.4837 1136.73 24.0575 1136.6 23.5462 1136.6C23.0537 1136.6 22.6371 1136.73 22.2962 1136.98C21.959 1137.24 21.7034 1137.59 21.5291 1138.05C21.3549 1138.5 21.2678 1139.03 21.2678 1139.64ZM29.478 1144V1135.27H31.12V1136.66H31.2109C31.37 1136.19 31.6503 1135.82 32.0518 1135.55C32.4571 1135.28 32.9155 1135.14 33.4268 1135.14C33.5329 1135.14 33.6579 1135.15 33.8018 1135.15C33.9496 1135.16 34.0651 1135.17 34.1484 1135.18V1136.81C34.0803 1136.79 33.959 1136.77 33.7848 1136.74C33.6106 1136.72 33.4363 1136.7 33.2621 1136.7C32.8606 1136.7 32.5026 1136.79 32.1882 1136.96C31.8776 1137.13 31.6314 1137.36 31.4496 1137.66C31.2678 1137.95 31.1768 1138.29 31.1768 1138.67V1144H29.478ZM35.6186 1144V1135.27H37.3175V1144H35.6186ZM36.4766 1133.93C36.1811 1133.93 35.9273 1133.83 35.7152 1133.63C35.5069 1133.43 35.4027 1133.19 35.4027 1132.91C35.4027 1132.63 35.5069 1132.4 35.7152 1132.2C35.9273 1132 36.1811 1131.9 36.4766 1131.9C36.772 1131.9 37.0239 1132 37.2322 1132.2C37.4444 1132.4 37.5504 1132.63 37.5504 1132.91C37.5504 1133.19 37.4444 1133.43 37.2322 1133.63C37.0239 1133.83 36.772 1133.93 36.4766 1133.93ZM41.3018 1138.82V1144H39.603V1135.27H41.2337V1136.69H41.3416C41.5424 1136.23 41.8568 1135.86 42.2848 1135.58C42.7166 1135.3 43.2602 1135.16 43.9155 1135.16C44.5102 1135.16 45.031 1135.28 45.478 1135.53C45.925 1135.78 46.2715 1136.15 46.5178 1136.64C46.764 1137.12 46.8871 1137.73 46.8871 1138.45V1144H45.1882V1138.65C45.1882 1138.02 45.0234 1137.53 44.6939 1137.17C44.3643 1136.81 43.9117 1136.63 43.3359 1136.63C42.942 1136.63 42.5916 1136.72 42.2848 1136.89C41.9818 1137.06 41.7412 1137.31 41.5632 1137.64C41.389 1137.96 41.3018 1138.36 41.3018 1138.82ZM52.8246 1147.45C52.1314 1147.45 51.5348 1147.36 51.0348 1147.18C50.5386 1147 50.1333 1146.76 49.8189 1146.46C49.5045 1146.16 49.2696 1145.83 49.1143 1145.48L50.5746 1144.88C50.6768 1145.04 50.8132 1145.22 50.9837 1145.4C51.1579 1145.59 51.3928 1145.75 51.6882 1145.89C51.9875 1146.02 52.3719 1146.09 52.8416 1146.09C53.4856 1146.09 54.0178 1145.93 54.4382 1145.61C54.8587 1145.3 55.0689 1144.81 55.0689 1144.12V1142.41H54.9609C54.8587 1142.59 54.7109 1142.8 54.5178 1143.03C54.3284 1143.26 54.067 1143.45 53.7337 1143.62C53.4003 1143.79 52.9666 1143.87 52.4325 1143.87C51.7431 1143.87 51.1219 1143.71 50.5689 1143.39C50.0196 1143.06 49.584 1142.58 49.2621 1141.95C48.9439 1141.31 48.7848 1140.53 48.7848 1139.6C48.7848 1138.67 48.942 1137.88 49.2564 1137.22C49.5746 1136.55 50.0102 1136.05 50.5632 1135.69C51.1162 1135.34 51.7431 1135.16 52.4439 1135.16C52.9856 1135.16 53.4231 1135.25 53.7564 1135.43C54.0897 1135.61 54.3492 1135.82 54.5348 1136.06C54.7242 1136.3 54.87 1136.51 54.9723 1136.69H55.0973V1135.27H56.7621V1144.19C56.7621 1144.94 56.5878 1145.56 56.2393 1146.04C55.8909 1146.52 55.4193 1146.88 54.8246 1147.11C54.2337 1147.34 53.567 1147.45 52.8246 1147.45ZM52.8075 1142.46C53.2962 1142.46 53.709 1142.35 54.0462 1142.12C54.3871 1141.89 54.6446 1141.56 54.8189 1141.13C54.9969 1140.7 55.0859 1140.18 55.0859 1139.58C55.0859 1138.99 54.9988 1138.48 54.8246 1138.03C54.6503 1137.58 54.3946 1137.23 54.0575 1136.98C53.7204 1136.73 53.3037 1136.6 52.8075 1136.6C52.2962 1136.6 51.87 1136.73 51.5291 1137C51.1882 1137.26 50.9306 1137.62 50.7564 1138.07C50.5859 1138.52 50.5007 1139.02 50.5007 1139.58C50.5007 1140.15 50.5878 1140.65 50.7621 1141.09C50.9363 1141.52 51.1939 1141.85 51.5348 1142.1C51.8795 1142.34 52.3037 1142.46 52.8075 1142.46ZM63.4112 1144V1132.36H67.6726C68.4983 1132.36 69.1821 1132.5 69.7237 1132.77C70.2654 1133.04 70.6707 1133.41 70.9396 1133.87C71.2086 1134.33 71.343 1134.84 71.343 1135.42C71.343 1135.91 71.254 1136.31 71.076 1136.65C70.898 1136.98 70.6593 1137.24 70.3601 1137.44C70.0646 1137.64 69.7389 1137.78 69.3828 1137.88V1137.99C69.7692 1138.01 70.1461 1138.13 70.5135 1138.36C70.8847 1138.59 71.1915 1138.91 71.4339 1139.34C71.6764 1139.76 71.7976 1140.27 71.7976 1140.87C71.7976 1141.46 71.6574 1142 71.3771 1142.47C71.1006 1142.94 70.6726 1143.31 70.093 1143.59C69.5135 1143.86 68.773 1144 67.8714 1144H63.4112ZM65.1669 1142.49H67.701C68.5419 1142.49 69.1442 1142.33 69.5078 1142.01C69.8714 1141.68 70.0533 1141.27 70.0533 1140.78C70.0533 1140.42 69.9605 1140.08 69.7749 1139.77C69.5893 1139.47 69.3241 1139.22 68.9794 1139.04C68.6385 1138.86 68.2332 1138.77 67.7635 1138.77H65.1669V1142.49ZM65.1669 1137.4H67.5192C67.9131 1137.4 68.2673 1137.32 68.5817 1137.17C68.8999 1137.02 69.1518 1136.81 69.3374 1136.53C69.5268 1136.26 69.6214 1135.93 69.6214 1135.56C69.6214 1135.08 69.4529 1134.67 69.1158 1134.35C68.7786 1134.02 68.2616 1133.86 67.5646 1133.86H65.1669V1137.4ZM77.4197 1144.18C76.6016 1144.18 75.8875 1143.99 75.2777 1143.61C74.6679 1143.24 74.1944 1142.71 73.8572 1142.04C73.5201 1141.37 73.3516 1140.58 73.3516 1139.68C73.3516 1138.77 73.5201 1137.98 73.8572 1137.3C74.1944 1136.62 74.6679 1136.1 75.2777 1135.72C75.8875 1135.35 76.6016 1135.16 77.4197 1135.16C78.2379 1135.16 78.9519 1135.35 79.5618 1135.72C80.1716 1136.1 80.6451 1136.62 80.9822 1137.3C81.3194 1137.98 81.4879 1138.77 81.4879 1139.68C81.4879 1140.58 81.3194 1141.37 80.9822 1142.04C80.6451 1142.71 80.1716 1143.24 79.5618 1143.61C78.9519 1143.99 78.2379 1144.18 77.4197 1144.18ZM77.4254 1142.75C77.9557 1142.75 78.3951 1142.61 78.7436 1142.33C79.0921 1142.05 79.3497 1141.68 79.5163 1141.21C79.6868 1140.74 79.772 1140.23 79.772 1139.67C79.772 1139.11 79.6868 1138.6 79.5163 1138.14C79.3497 1137.67 79.0921 1137.29 78.7436 1137.01C78.3951 1136.72 77.9557 1136.58 77.4254 1136.58C76.8913 1136.58 76.4482 1136.72 76.0959 1137.01C75.7474 1137.29 75.4879 1137.67 75.3175 1138.14C75.1508 1138.6 75.0675 1139.11 75.0675 1139.67C75.0675 1140.23 75.1508 1140.74 75.3175 1141.21C75.4879 1141.68 75.7474 1142.05 76.0959 1142.33C76.4482 1142.61 76.8913 1142.75 77.4254 1142.75ZM87.0604 1144.18C86.2422 1144.18 85.5282 1143.99 84.9183 1143.61C84.3085 1143.24 83.835 1142.71 83.4979 1142.04C83.1607 1141.37 82.9922 1140.58 82.9922 1139.68C82.9922 1138.77 83.1607 1137.98 83.4979 1137.3C83.835 1136.62 84.3085 1136.1 84.9183 1135.72C85.5282 1135.35 86.2422 1135.16 87.0604 1135.16C87.8786 1135.16 88.5926 1135.35 89.2024 1135.72C89.8123 1136.1 90.2857 1136.62 90.6229 1137.3C90.96 1137.98 91.1286 1138.77 91.1286 1139.68C91.1286 1140.58 90.96 1141.37 90.6229 1142.04C90.2857 1142.71 89.8123 1143.24 89.2024 1143.61C88.5926 1143.99 87.8786 1144.18 87.0604 1144.18ZM87.0661 1142.75C87.5964 1142.75 88.0357 1142.61 88.3842 1142.33C88.7327 1142.05 88.9903 1141.68 89.157 1141.21C89.3274 1140.74 89.4126 1140.23 89.4126 1139.67C89.4126 1139.11 89.3274 1138.6 89.157 1138.14C88.9903 1137.67 88.7327 1137.29 88.3842 1137.01C88.0357 1136.72 87.5964 1136.58 87.0661 1136.58C86.532 1136.58 86.0888 1136.72 85.7365 1137.01C85.388 1137.29 85.1286 1137.67 84.9581 1138.14C84.7914 1138.6 84.7081 1139.11 84.7081 1139.67C84.7081 1140.23 84.7914 1140.74 84.9581 1141.21C85.1286 1141.68 85.388 1142.05 85.7365 1142.33C86.0888 1142.61 86.532 1142.75 87.0661 1142.75ZM97.0987 1135.27V1136.64H92.3317V1135.27H97.0987ZM93.6101 1133.18H95.3089V1141.44C95.3089 1141.77 95.3582 1142.02 95.4567 1142.18C95.5552 1142.34 95.6821 1142.46 95.8374 1142.52C95.9964 1142.57 96.1688 1142.6 96.3544 1142.6C96.4908 1142.6 96.6101 1142.59 96.7124 1142.57C96.8146 1142.55 96.8942 1142.54 96.951 1142.53L97.2578 1143.93C97.1593 1143.97 97.0192 1144.01 96.8374 1144.05C96.6555 1144.09 96.4283 1144.11 96.1555 1144.11C95.7086 1144.12 95.2919 1144.04 94.9055 1143.88C94.5192 1143.71 94.2067 1143.45 93.968 1143.1C93.7294 1142.75 93.6101 1142.32 93.6101 1141.79V1133.18Z" fill="black"/>
<path d="M77.615 1085.18C70.208 1095.04 54.392 1091.71 44.249 1092.19C44.249 1092.19 42.452 1092.29 40.646 1092.59C40.646 1092.59 41.33 1092.3 42.203 1092C49.325 1089.53 52.691 1089.04 57.02 1086.81C65.15 1082.65 73.244 1073.58 74.891 1064.15C71.795 1073.22 62.381 1081.02 53.81 1084.19C47.945 1086.35 37.334 1088.46 37.331 1088.46C37.1868 1088.38 37.0438 1088.31 36.902 1088.23C29.687 1084.72 29.477 1069.09 42.584 1064.05C48.332 1061.85 53.825 1063.06 60.038 1061.58C66.662 1060 74.336 1055.04 77.453 1048.55C80.948 1058.92 85.148 1075.14 77.615 1085.18ZM77.741 1045.34C76.903 1047.35 75.8306 1049.25 74.546 1051.01C71.7535 1048.13 68.4115 1045.84 64.7181 1044.28C61.0246 1042.72 57.0551 1041.91 53.045 1041.91C36.476 1041.91 23 1055.39 23 1071.96C22.9981 1076.09 23.8513 1080.18 25.506 1083.96C27.1608 1087.75 29.5812 1091.15 32.615 1093.96L33.275 1094.54C32.7939 1094.06 32.5239 1093.4 32.5244 1092.72C32.5248 1092.04 32.7956 1091.39 33.2773 1090.91C33.7589 1090.43 34.412 1090.16 35.0929 1090.16C35.7738 1090.16 36.4267 1090.43 36.9082 1090.91C37.3897 1091.39 37.6602 1092.04 37.6604 1092.72C37.6605 1093.41 37.3902 1094.06 36.909 1094.54C36.4277 1095.02 35.7748 1095.29 35.0939 1095.29C34.4131 1095.29 33.7599 1095.02 33.278 1094.54L33.725 1094.94C39.1262 1099.5 45.9722 1102.01 53.045 1102C68.879 1102 81.884 1089.68 82.997 1074.12C83.819 1066.51 81.569 1056.84 77.741 1045.34Z" fill="black"/>
<defs>
<clipPath id="clip0_3554_830">
<rect width="67" height="77" fill="white" transform="translate(20 20)"/>
</clipPath>
<clipPath id="clip1_3554_830">
<rect width="58" height="67" fill="white" transform="translate(24 279)"/>
</clipPath>
<clipPath id="clip2_3554_830">
<rect width="66" height="67" fill="white" transform="translate(20 655)"/>
</clipPath>
</defs>
</svg>
